STARTFONT 2.1
FONT tvsys12b
SIZE 20 72 72
FONTBOUNDINGBOX 11 17 0 0
COMMENT "Generated by fontforge, http://fontforge.sourceforge.net"
STARTPROPERTIES 8
POINT_SIZE 200
WEIGHT 10
RESOLUTION 99
RESOLUTION_X 72
RESOLUTION_Y 72
X_HEIGHT 0
QUAD_WIDTH 11
_XMBDFED_INFO "Edited with xmbdfed 4.4."
ENDPROPERTIES
CHARS 256
STARTCHAR char0
ENCODING 0
SWIDTH 550 0
DWIDTH 11 0
BBX 0 0 0 0
BITMAP
ENDCHAR
STARTCHAR char1
ENCODING 1
SWIDTH 550 0
DWIDTH 11 0
BBX 9 12 0 3
BITMAP
1C80
3780
6300
6700
6700
6F00
7B00
7300
7300
E300
F600
9C00
ENDCHAR
STARTCHAR char2
ENCODING 2
SWIDTH 550 0
DWIDTH 11 0
BBX 7 12 1 3
BITMAP
38
6C
C6
CE
CE
D6
D6
E6
E6
C6
6C
38
ENDCHAR
STARTCHAR char3
ENCODING 3
SWIDTH 550 0
DWIDTH 11 0
BBX 7 12 1 3
BITMAP
38
6C
C6
C6
C6
D6
D6
C6
C6
C6
6C
38
ENDCHAR
STARTCHAR char4
ENCODING 4
SWIDTH 550 0
DWIDTH 11 0
BBX 7 12 1 3
BITMAP
38
6C
C6
C6
CE
CE
D6
D6
E6
E6
6C
38
ENDCHAR
STARTCHAR char5
ENCODING 5
SWIDTH 550 0
DWIDTH 11 0
BBX 7 12 1 3
BITMAP
38
6C
C6
CE
CE
DE
F6
E6
E6
C6
6C
38
ENDCHAR
STARTCHAR char6
ENCODING 6
SWIDTH 550 0
DWIDTH 11 0
BBX 5 12 2 3
BITMAP
70
D8
D8
D8
D8
D8
D8
D8
D8
D8
D8
70
ENDCHAR
STARTCHAR char7
ENCODING 7
SWIDTH 550 0
DWIDTH 11 0
BBX 8 8 2 5
BITMAP
3C
7E
FF
FF
FF
FF
7E
3C
ENDCHAR
STARTCHAR char8
ENCODING 8
SWIDTH 550 0
DWIDTH 11 0
BBX 7 12 1 3
BITMAP
38
6C
C6
C6
C6
C6
C6
C6
C6
C6
6C
38
ENDCHAR
STARTCHAR char9
ENCODING 9
SWIDTH 500 0
DWIDTH 10 0
BBX 9 9 1 4
BITMAP
3E00
4100
8080
8080
8080
8080
8080
4100
3E00
ENDCHAR
STARTCHAR char10
ENCODING 10
SWIDTH 550 0
DWIDTH 11 0
BBX 0 0 0 0
BITMAP
ENDCHAR
STARTCHAR char11
ENCODING 11
SWIDTH 550 0
DWIDTH 11 0
BBX 8 12 1 3
BITMAP
3C
66
C3
C3
C3
C3
C3
C3
C3
C3
66
3C
ENDCHAR
STARTCHAR char12
ENCODING 12
SWIDTH 550 0
DWIDTH 11 0
BBX 8 12 1 3
BITMAP
7E
C3
C3
C3
C3
C3
C3
C3
C3
C3
C3
7E
ENDCHAR
STARTCHAR char13
ENCODING 13
SWIDTH 550 0
DWIDTH 11 0
BBX 7 12 1 3
BITMAP
38
6C
C6
CE
CE
D6
D6
E6
E6
C6
6C
38
ENDCHAR
STARTCHAR char14
ENCODING 14
SWIDTH 550 0
DWIDTH 11 0
BBX 9 12 1 3
BITMAP
3C00
6600
C300
C300
C300
C300
C300
DB00
DB00
CE00
6780
3D80
ENDCHAR
STARTCHAR char15
ENCODING 15
SWIDTH 500 0
DWIDTH 10 0
BBX 10 14 0 2
BITMAP
FFC0
FFC0
FFC0
FFC0
FFC0
FFC0
FFC0
FFC0
FFC0
FFC0
FFC0
FFC0
FFC0
FFC0
ENDCHAR
STARTCHAR char16
ENCODING 16
SWIDTH 550 0
DWIDTH 11 0
BBX 8 11 0 4
BITMAP
80
C0
E0
E0
FC
FF
FC
E0
C0
C0
80
ENDCHAR
STARTCHAR char17
ENCODING 17
SWIDTH 550 0
DWIDTH 11 0
BBX 8 11 0 4
BITMAP
01
03
07
07
3F
FF
3F
07
03
03
01
ENDCHAR
STARTCHAR char18
ENCODING 18
SWIDTH 550 0
DWIDTH 11 0
BBX 7 11 1 4
BITMAP
38
7C
FE
FE
38
38
38
FE
7C
7C
38
ENDCHAR
STARTCHAR char19
ENCODING 19
SWIDTH 550 0
DWIDTH 11 0
BBX 7 11 1 4
BITMAP
C6
C6
C6
C6
C6
C6
C6
00
C6
C6
C6
ENDCHAR
STARTCHAR char20
ENCODING 20
SWIDTH 550 0
DWIDTH 11 0
BBX 2 6 6 9
BITMAP
80
00
00
00
00
C0
ENDCHAR
STARTCHAR char21
ENCODING 21
SWIDTH 500 0
DWIDTH 10 0
BBX 10 14 0 2
BITMAP
FFC0
FFC0
FFC0
FFC0
FFC0
FFC0
FFC0
FFC0
FFC0
FFC0
FFC0
FFC0
FFC0
FFC0
ENDCHAR
STARTCHAR char22
ENCODING 22
SWIDTH 550 0
DWIDTH 11 0
BBX 8 4 0 4
BITMAP
FF
FF
FF
FF
ENDCHAR
STARTCHAR char23
ENCODING 23
SWIDTH 550 0
DWIDTH 11 0
BBX 7 12 1 3
BITMAP
38
7C
FE
FE
38
38
38
FE
7C
7C
38
FE
ENDCHAR
STARTCHAR char24
ENCODING 24
SWIDTH 550 0
DWIDTH 11 0
BBX 7 11 1 4
BITMAP
38
7C
FE
FE
38
38
38
38
38
38
38
ENDCHAR
STARTCHAR char25
ENCODING 25
SWIDTH 550 0
DWIDTH 11 0
BBX 7 11 1 4
BITMAP
38
38
38
38
38
38
38
FE
7C
7C
38
ENDCHAR
STARTCHAR char26
ENCODING 26
SWIDTH 550 0
DWIDTH 11 0
BBX 8 6 0 7
BITMAP
1C
1C
06
FF
06
1C
ENDCHAR
STARTCHAR char27
ENCODING 27
SWIDTH 550 0
DWIDTH 11 0
BBX 8 6 0 7
BITMAP
38
38
60
FF
60
38
ENDCHAR
STARTCHAR char28
ENCODING 28
SWIDTH 550 0
DWIDTH 11 0
BBX 8 4 0 7
BITMAP
C0
C0
C0
FF
ENDCHAR
STARTCHAR char29
ENCODING 29
SWIDTH 550 0
DWIDTH 11 0
BBX 8 6 0 7
BITMAP
24
24
66
FF
66
24
ENDCHAR
STARTCHAR char30
ENCODING 30
SWIDTH 550 0
DWIDTH 11 0
BBX 9 9 1 5
BITMAP
0800
1C00
1C00
3E00
3E00
7F00
7F00
FF80
FF80
ENDCHAR
STARTCHAR char31
ENCODING 31
SWIDTH 550 0
DWIDTH 11 0
BBX 8 9 0 5
BITMAP
FF
FF
FF
7E
7E
3C
3C
18
18
ENDCHAR
STARTCHAR char32
ENCODING 32
SWIDTH 550 0
DWIDTH 11 0
BBX 0 0 0 0
BITMAP
ENDCHAR
STARTCHAR char33
ENCODING 33
SWIDTH 550 0
DWIDTH 11 0
BBX 5 11 2 4
BITMAP
70
F8
F8
F8
F8
70
70
00
70
70
70
ENDCHAR
STARTCHAR char34
ENCODING 34
SWIDTH 550 0
DWIDTH 11 0
BBX 7 5 1 11
BITMAP
C6
C6
C6
44
44
ENDCHAR
STARTCHAR char35
ENCODING 35
SWIDTH 550 0
DWIDTH 11 0
BBX 8 11 0 4
BITMAP
66
66
FF
FF
66
66
66
FF
66
66
66
ENDCHAR
STARTCHAR char36
ENCODING 36
SWIDTH 550 0
DWIDTH 11 0
BBX 8 17 0 0
BITMAP
1C
1C
7E
C3
C1
C1
C0
7E
03
83
C3
C3
7E
1C
1C
1C
1C
ENDCHAR
STARTCHAR char37
ENCODING 37
SWIDTH 550 0
DWIDTH 11 0
BBX 8 9 0 4
BITMAP
C1
C1
C3
06
1C
38
63
63
C3
ENDCHAR
STARTCHAR char38
ENCODING 38
SWIDTH 550 0
DWIDTH 11 0
BBX 8 11 0 4
BITMAP
3C
66
66
66
3C
7B
DE
C6
C6
C6
7B
ENDCHAR
STARTCHAR char39
ENCODING 39
SWIDTH 550 0
DWIDTH 11 0
BBX 4 5 1 11
BITMAP
70
70
70
C0
C0
ENDCHAR
STARTCHAR char40
ENCODING 40
SWIDTH 550 0
DWIDTH 11 0
BBX 5 11 2 4
BITMAP
18
70
E0
E0
E0
E0
E0
E0
70
70
18
ENDCHAR
STARTCHAR char41
ENCODING 41
SWIDTH 550 0
DWIDTH 11 0
BBX 5 11 2 4
BITMAP
E0
70
18
18
18
18
18
18
70
70
E0
ENDCHAR
STARTCHAR char42
ENCODING 42
SWIDTH 550 0
DWIDTH 11 0
BBX 11 11 0 4
BITMAP
CE60
AAA0
5B40
2A80
F1E0
8020
F1E0
2A80
5B40
AAA0
CE60
ENDCHAR
STARTCHAR char43
ENCODING 43
SWIDTH 550 0
DWIDTH 11 0
BBX 11 11 0 4
BITMAP
0E00
0A00
0A00
0A00
FBE0
8020
FBE0
0A00
0A00
0A00
0E00
ENDCHAR
STARTCHAR char44
ENCODING 44
SWIDTH 550 0
DWIDTH 11 0
BBX 4 5 2 3
BITMAP
70
70
70
70
E0
ENDCHAR
STARTCHAR char45
ENCODING 45
SWIDTH 550 0
DWIDTH 11 0
BBX 8 2 1 8
BITMAP
FF
FF
ENDCHAR
STARTCHAR char46
ENCODING 46
SWIDTH 550 0
DWIDTH 11 0
BBX 2 2 6 3
BITMAP
C0
C0
ENDCHAR
STARTCHAR char47
ENCODING 47
SWIDTH 550 0
DWIDTH 11 0
BBX 7 11 2 3
BITMAP
06
0C
0C
18
18
30
30
60
60
C0
C0
ENDCHAR
STARTCHAR char48
ENCODING 48
SWIDTH 550 0
DWIDTH 11 0
BBX 9 14 0 2
BITMAP
3E00
4100
9C80
9880
9880
9880
9480
9480
8C80
8C80
8C80
9C80
4100
3E00
ENDCHAR
STARTCHAR char49
ENCODING 49
SWIDTH 550 0
DWIDTH 11 0
BBX 8 14 0 2
BITMAP
1C
24
44
84
A4
E4
24
24
24
24
24
E7
81
FF
ENDCHAR
STARTCHAR char50
ENCODING 50
SWIDTH 550 0
DWIDTH 11 0
BBX 10 14 0 2
BITMAP
3F00
4080
9E40
9240
6240
0240
0480
0900
1200
2400
4800
9FC0
8040
FFC0
ENDCHAR
STARTCHAR char51
ENCODING 51
SWIDTH 550 0
DWIDTH 11 0
BBX 10 14 0 2
BITMAP
3F00
4080
9E40
9240
6240
0E40
1080
1080
0E40
6240
9240
9E40
4080
3F00
ENDCHAR
STARTCHAR char52
ENCODING 52
SWIDTH 550 0
DWIDTH 11 0
BBX 10 15 0 2
BITMAP
0080
0180
0280
0480
0880
1480
2C80
5480
BCC0
8040
FCC0
0480
0480
0480
0780
ENDCHAR
STARTCHAR char53
ENCODING 53
SWIDTH 550 0
DWIDTH 11 0
BBX 10 14 0 2
BITMAP
FFC0
8040
9FC0
9000
9000
9E00
8100
FC80
0240
6240
9240
9C80
4100
3E00
ENDCHAR
STARTCHAR char54
ENCODING 54
SWIDTH 550 0
DWIDTH 11 0
BBX 10 14 0 2
BITMAP
1F00
2080
4E40
9140
9080
9E00
9100
8C80
9240
9240
9240
4C80
2100
1E00
ENDCHAR
STARTCHAR char55
ENCODING 55
SWIDTH 550 0
DWIDTH 11 0
BBX 10 14 0 2
BITMAP
FFC0
8040
BE40
E240
0440
0480
0900
0900
0900
1200
1200
1200
1200
1E00
ENDCHAR
STARTCHAR char56
ENCODING 56
SWIDTH 550 0
DWIDTH 11 0
BBX 10 14 0 2
BITMAP
1E00
2100
4C80
9240
9240
9E40
4080
4C80
8C40
9240
9240
4C80
2100
1E00
ENDCHAR
STARTCHAR char57
ENCODING 57
SWIDTH 550 0
DWIDTH 11 0
BBX 10 14 0 2
BITMAP
1E00
2100
4C80
9240
9240
9240
4C40
2240
1E40
0240
6240
9C80
4100
3E00
ENDCHAR
STARTCHAR char58
ENCODING 58
SWIDTH 550 0
DWIDTH 11 0
BBX 2 8 1 3
BITMAP
C0
C0
00
00
00
00
C0
C0
ENDCHAR
STARTCHAR char59
ENCODING 59
SWIDTH 550 0
DWIDTH 11 0
BBX 4 10 2 4
BITMAP
70
70
70
00
00
00
70
70
70
E0
ENDCHAR
STARTCHAR char60
ENCODING 60
SWIDTH 550 0
DWIDTH 11 0
BBX 7 11 1 4
BITMAP
06
0C
38
38
70
C0
70
38
0C
0C
06
ENDCHAR
STARTCHAR char61
ENCODING 61
SWIDTH 550 0
DWIDTH 11 0
BBX 7 4 1 7
BITMAP
FE
00
00
FE
ENDCHAR
STARTCHAR char62
ENCODING 62
SWIDTH 550 0
DWIDTH 11 0
BBX 7 11 1 4
BITMAP
C0
70
38
38
0C
06
0C
38
70
70
C0
ENDCHAR
STARTCHAR char63
ENCODING 63
SWIDTH 550 0
DWIDTH 11 0
BBX 8 11 0 4
BITMAP
7E
C3
C3
C3
06
1C
1C
00
1C
1C
1C
ENDCHAR
STARTCHAR char64
ENCODING 64
SWIDTH 550 0
DWIDTH 11 0
BBX 0 0 0 0
BITMAP
ENDCHAR
STARTCHAR char65
ENCODING 65
SWIDTH 550 0
DWIDTH 11 0
BBX 10 14 0 2
BITMAP
0C00
1200
1200
1200
2900
2900
2900
4C80
4C80
4080
9E40
9240
9240
6180
ENDCHAR
STARTCHAR char66
ENCODING 66
SWIDTH 550 0
DWIDTH 11 0
BBX 10 14 0 2
BITMAP
FC00
8200
9900
9480
9480
9C80
8100
9C80
9240
9240
9240
9C80
8100
FE00
ENDCHAR
STARTCHAR char67
ENCODING 67
SWIDTH 550 0
DWIDTH 11 0
BBX 10 14 0 2
BITMAP
1E00
2100
4C80
9240
9180
9000
9000
9000
9000
9180
9240
4C80
2100
1E00
ENDCHAR
STARTCHAR char68
ENCODING 68
SWIDTH 550 0
DWIDTH 11 0
BBX 10 14 0 2
BITMAP
FE00
8100
9C80
9240
9240
9240
9240
9240
9240
9240
9240
9C80
8100
FE00
ENDCHAR
STARTCHAR char69
ENCODING 69
SWIDTH 550 0
DWIDTH 11 0
BBX 10 14 0 2
BITMAP
FFC0
8040
9FC0
9000
9000
9F80
8080
9F80
9000
9000
9000
9FC0
8040
FFC0
ENDCHAR
STARTCHAR char70
ENCODING 70
SWIDTH 550 0
DWIDTH 11 0
BBX 10 14 0 2
BITMAP
FFC0
8040
9FC0
9000
9000
9F80
8080
9F80
9000
9000
9000
9000
9000
F000
ENDCHAR
STARTCHAR char71
ENCODING 71
SWIDTH 550 0
DWIDTH 11 0
BBX 10 14 0 2
BITMAP
1E00
2100
4C80
9240
93C0
9000
97C0
9840
9640
9240
9240
4C40
2240
1D80
ENDCHAR
STARTCHAR char72
ENCODING 72
SWIDTH 550 0
DWIDTH 11 0
BBX 10 14 0 2
BITMAP
F3C0
9240
9240
9240
9240
9E40
8040
8E40
9240
9240
9240
9240
9240
F3C0
ENDCHAR
STARTCHAR char73
ENCODING 73
SWIDTH 550 0
DWIDTH 11 0
BBX 8 14 0 2
BITMAP
FF
81
E7
24
24
24
24
24
24
24
24
E7
81
FF
ENDCHAR
STARTCHAR char74
ENCODING 74
SWIDTH 550 0
DWIDTH 11 0
BBX 11 14 0 2
BITMAP
3FE0
2020
3CE0
0480
0480
0480
0480
0480
0480
6480
9480
4900
2200
1C00
ENDCHAR
STARTCHAR char75
ENCODING 75
SWIDTH 550 0
DWIDTH 11 0
BBX 10 14 0 2
BITMAP
F1C0
9240
9480
9900
9200
8400
8200
9200
9900
9900
9480
9480
9240
F180
ENDCHAR
STARTCHAR char76
ENCODING 76
SWIDTH 550 0
DWIDTH 11 0
BBX 10 14 0 2
BITMAP
F000
9000
9000
9000
9000
9000
9000
9000
9000
9000
9000
9FC0
8040
FFC0
ENDCHAR
STARTCHAR char77
ENCODING 77
SWIDTH 550 0
DWIDTH 11 0
BBX 10 14 0 2
BITMAP
C0C0
A140
9240
8C40
8C40
8040
9240
9240
9240
9E40
9240
9240
9240
F3C0
ENDCHAR
STARTCHAR char78
ENCODING 78
SWIDTH 550 0
DWIDTH 11 0
BBX 10 14 0 2
BITMAP
F3C0
9240
9240
8A40
8A40
9640
9640
9A40
9A40
9440
9440
9240
9240
F3C0
ENDCHAR
STARTCHAR char79
ENCODING 79
SWIDTH 550 0
DWIDTH 11 0
BBX 10 14 0 2
BITMAP
3F00
4080
9E40
9240
9240
9240
9240
9240
9240
9240
9240
9E40
4080
3F00
ENDCHAR
STARTCHAR char80
ENCODING 80
SWIDTH 550 0
DWIDTH 11 0
BBX 10 14 0 2
BITMAP
FE00
8100
9C80
9240
9240
9240
9C80
8100
9E00
9000
9000
9000
9000
F000
ENDCHAR
STARTCHAR char81
ENCODING 81
SWIDTH 550 0
DWIDTH 11 0
BBX 11 14 0 2
BITMAP
3F00
4080
9E40
9240
9240
9240
9240
9E40
9240
9040
9840
9E20
40A0
3F40
ENDCHAR
STARTCHAR char82
ENCODING 82
SWIDTH 550 0
DWIDTH 11 0
BBX 10 14 0 2
BITMAP
FE00
8100
9C80
9640
9240
9640
9C80
8100
9900
9480
9480
9640
9240
F180
ENDCHAR
STARTCHAR char83
ENCODING 83
SWIDTH 550 0
DWIDTH 11 0
BBX 10 14 0 2
BITMAP
1E00
2100
4C80
9240
9980
4600
3100
0C80
0240
6240
9240
4C80
2100
1E00
ENDCHAR
STARTCHAR char84
ENCODING 84
SWIDTH 550 0
DWIDTH 11 0
BBX 11 14 0 2
BITMAP
FFE0
8020
F9E0
0900
0900
0900
0900
0900
0900
0900
0900
0900
0900
0F00
ENDCHAR
STARTCHAR char85
ENCODING 85
SWIDTH 550 0
DWIDTH 11 0
BBX 10 14 0 2
BITMAP
F3C0
9240
9240
9240
9240
9240
9240
9240
9240
9240
9240
4C80
2100
1E00
ENDCHAR
STARTCHAR char86
ENCODING 86
SWIDTH 550 0
DWIDTH 11 0
BBX 10 14 0 2
BITMAP
6180
9240
9240
9240
5480
4C80
4C80
2900
2900
2100
1200
1200
1200
0C00
ENDCHAR
STARTCHAR char87
ENCODING 87
SWIDTH 550 0
DWIDTH 11 0
BBX 10 14 0 2
BITMAP
F3C0
9240
9240
9240
9240
9240
9240
9E40
9240
8040
8040
8C40
9240
E1C0
ENDCHAR
STARTCHAR char88
ENCODING 88
SWIDTH 550 0
DWIDTH 11 0
BBX 10 14 0 2
BITMAP
6180
9240
9240
4C80
4C80
2100
1200
1200
2100
4C80
4C80
9240
9240
6180
ENDCHAR
STARTCHAR char89
ENCODING 89
SWIDTH 550 0
DWIDTH 11 0
BBX 10 14 0 2
BITMAP
6180
9240
9240
4C80
4C80
2D00
2100
1200
1200
1200
1200
1200
1200
1E00
ENDCHAR
STARTCHAR char90
ENCODING 90
SWIDTH 550 0
DWIDTH 11 0
BBX 10 14 0 2
BITMAP
FFC0
8040
FC80
0480
0900
0900
1200
1200
2400
2400
4800
CFC0
8040
FFC0
ENDCHAR
STARTCHAR char91
ENCODING 91
SWIDTH 550 0
DWIDTH 11 0
BBX 5 11 2 4
BITMAP
F8
E0
E0
E0
E0
E0
E0
E0
E0
E0
F8
ENDCHAR
STARTCHAR char92
ENCODING 92
SWIDTH 550 0
DWIDTH 11 0
BBX 8 11 0 4
BITMAP
80
C0
E0
E0
78
3C
1E
07
03
03
01
ENDCHAR
STARTCHAR char93
ENCODING 93
SWIDTH 550 0
DWIDTH 11 0
BBX 5 11 2 4
BITMAP
F8
18
18
18
18
18
18
18
18
18
F8
ENDCHAR
STARTCHAR char94
ENCODING 94
SWIDTH 550 0
DWIDTH 11 0
BBX 8 4 0 13
BITMAP
18
3C
66
C3
ENDCHAR
STARTCHAR char95
ENCODING 95
SWIDTH 550 0
DWIDTH 11 0
BBX 10 2 0 4
BITMAP
FFC0
FFC0
ENDCHAR
STARTCHAR char96
ENCODING 96
SWIDTH 550 0
DWIDTH 11 0
BBX 4 3 2 14
BITMAP
E0
E0
70
ENDCHAR
STARTCHAR char97
ENCODING 97
SWIDTH 550 0
DWIDTH 11 0
BBX 8 7 0 4
BITMAP
7C
06
7E
C6
C6
C6
7B
ENDCHAR
STARTCHAR char98
ENCODING 98
SWIDTH 550 0
DWIDTH 11 0
BBX 8 11 0 4
BITMAP
E0
60
60
60
7C
66
63
63
63
63
7E
ENDCHAR
STARTCHAR char99
ENCODING 99
SWIDTH 550 0
DWIDTH 11 0
BBX 8 7 0 4
BITMAP
7E
C3
C0
C0
C3
C3
7E
ENDCHAR
STARTCHAR char100
ENCODING 100
SWIDTH 550 0
DWIDTH 11 0
BBX 8 11 0 4
BITMAP
1E
06
06
06
3E
66
C6
C6
C6
C6
7B
ENDCHAR
STARTCHAR char101
ENCODING 101
SWIDTH 550 0
DWIDTH 11 0
BBX 8 7 0 4
BITMAP
7E
C3
FF
C0
C3
C3
7E
ENDCHAR
STARTCHAR char102
ENCODING 102
SWIDTH 550 0
DWIDTH 11 0
BBX 7 11 0 4
BITMAP
3C
66
62
62
60
F8
60
60
60
60
F8
ENDCHAR
STARTCHAR char103
ENCODING 103
SWIDTH 550 0
DWIDTH 11 0
BBX 8 11 0 0
BITMAP
7B
C6
C6
C6
7E
7E
06
C6
7C
7C
7C
ENDCHAR
STARTCHAR char104
ENCODING 104
SWIDTH 550 0
DWIDTH 11 0
BBX 8 11 0 4
BITMAP
E0
60
60
60
66
7B
63
63
63
63
E3
ENDCHAR
STARTCHAR char105
ENCODING 105
SWIDTH 550 0
DWIDTH 11 0
BBX 5 11 2 4
BITMAP
70
70
00
00
F0
70
70
70
70
70
F8
ENDCHAR
STARTCHAR char106
ENCODING 106
SWIDTH 550 0
DWIDTH 11 0
BBX 7 15 1 0
BITMAP
06
06
00
00
0E
06
06
06
06
06
C6
C6
7C
7C
7C
ENDCHAR
STARTCHAR char107
ENCODING 107
SWIDTH 550 0
DWIDTH 11 0
BBX 8 11 0 4
BITMAP
E0
60
60
60
63
66
7C
66
63
63
E3
ENDCHAR
STARTCHAR char108
ENCODING 108
SWIDTH 550 0
DWIDTH 11 0
BBX 5 11 2 4
BITMAP
F0
70
70
70
70
70
70
70
70
70
F8
ENDCHAR
STARTCHAR char109
ENCODING 109
SWIDTH 550 0
DWIDTH 11 0
BBX 8 7 0 4
BITMAP
E6
FF
DB
DB
DB
DB
C3
ENDCHAR
STARTCHAR char110
ENCODING 110
SWIDTH 550 0
DWIDTH 11 0
BBX 8 7 0 4
BITMAP
DE
63
63
63
63
63
63
ENDCHAR
STARTCHAR char111
ENCODING 111
SWIDTH 550 0
DWIDTH 11 0
BBX 8 7 0 4
BITMAP
7E
C3
C3
C3
C3
C3
7E
ENDCHAR
STARTCHAR char112
ENCODING 112
SWIDTH 550 0
DWIDTH 11 0
BBX 8 11 0 0
BITMAP
DE
63
63
63
7E
7E
60
60
F8
F8
F8
ENDCHAR
STARTCHAR char113
ENCODING 113
SWIDTH 550 0
DWIDTH 11 0
BBX 8 11 0 0
BITMAP
7B
C6
C6
C6
7E
7E
06
06
1F
1F
1F
ENDCHAR
STARTCHAR char114
ENCODING 114
SWIDTH 550 0
DWIDTH 11 0
BBX 8 7 0 4
BITMAP
DE
7B
63
60
60
60
F8
ENDCHAR
STARTCHAR char115
ENCODING 115
SWIDTH 550 0
DWIDTH 11 0
BBX 8 7 0 4
BITMAP
7E
C3
78
1E
C3
C3
7E
ENDCHAR
STARTCHAR char116
ENCODING 116
SWIDTH 550 0
DWIDTH 11 0
BBX 8 11 0 4
BITMAP
18
38
38
38
FE
38
38
38
3B
3B
1E
ENDCHAR
STARTCHAR char117
ENCODING 117
SWIDTH 550 0
DWIDTH 11 0
BBX 8 7 0 4
BITMAP
C6
C6
C6
C6
C6
C6
7B
ENDCHAR
STARTCHAR char118
ENCODING 118
SWIDTH 550 0
DWIDTH 11 0
BBX 7 7 1 4
BITMAP
C6
C6
C6
C6
7C
7C
38
ENDCHAR
STARTCHAR char119
ENCODING 119
SWIDTH 550 0
DWIDTH 11 0
BBX 8 7 0 4
BITMAP
C3
C3
DB
DB
FF
FF
66
ENDCHAR
STARTCHAR char120
ENCODING 120
SWIDTH 550 0
DWIDTH 11 0
BBX 8 7 0 4
BITMAP
C3
66
3C
3C
66
66
C3
ENDCHAR
STARTCHAR char121
ENCODING 121
SWIDTH 550 0
DWIDTH 11 0
BBX 8 11 0 0
BITMAP
C3
C3
C3
C3
7F
7F
03
06
FC
FC
FC
ENDCHAR
STARTCHAR char122
ENCODING 122
SWIDTH 550 0
DWIDTH 11 0
BBX 8 7 0 4
BITMAP
FF
C6
1C
38
63
63
FF
ENDCHAR
STARTCHAR char123
ENCODING 123
SWIDTH 550 0
DWIDTH 11 0
BBX 7 11 1 4
BITMAP
0E
38
38
38
38
F0
38
38
38
38
0E
ENDCHAR
STARTCHAR char124
ENCODING 124
SWIDTH 550 0
DWIDTH 11 0
BBX 3 11 3 4
BITMAP
E0
E0
E0
E0
E0
00
E0
E0
E0
E0
E0
ENDCHAR
STARTCHAR char125
ENCODING 125
SWIDTH 550 0
DWIDTH 11 0
BBX 7 11 1 4
BITMAP
F0
38
38
38
38
0E
38
38
38
38
F0
ENDCHAR
STARTCHAR char126
ENCODING 126
SWIDTH 550 0
DWIDTH 11 0
BBX 8 2 0 13
BITMAP
7B
DE
ENDCHAR
STARTCHAR char127
ENCODING 127
SWIDTH 550 0
DWIDTH 11 0
BBX 8 8 0 5
BITMAP
18
18
3C
66
C3
C3
FF
FF
ENDCHAR
STARTCHAR char128
ENCODING 128
SWIDTH 550 0
DWIDTH 11 0
BBX 11 11 0 4
BITMAP
0400
0A00
1100
1500
2480
2A80
4A40
5140
9F20
8020
FFE0
ENDCHAR
STARTCHAR char129
ENCODING 129
SWIDTH 550 0
DWIDTH 11 0
BBX 11 11 0 4
BITMAP
FFE0
8020
BFA0
A0A0
A0A0
A0A0
A0A0
A0A0
BFA0
8020
FFE0
ENDCHAR
STARTCHAR char130
ENCODING 130
SWIDTH 550 0
DWIDTH 11 0
BBX 9 9 1 5
BITMAP
FF80
8080
8080
8080
8080
8080
FF80
8080
FF80
ENDCHAR
STARTCHAR char131
ENCODING 131
SWIDTH 550 0
DWIDTH 11 0
BBX 9 9 1 5
BITMAP
FF80
C180
7F00
6300
2200
3600
1400
1C00
0800
ENDCHAR
STARTCHAR char132
ENCODING 132
SWIDTH 550 0
DWIDTH 11 0
BBX 9 9 1 5
BITMAP
0800
1C00
3600
6300
C180
6300
3600
1C00
0800
ENDCHAR
STARTCHAR char133
ENCODING 133
SWIDTH 550 0
DWIDTH 11 0
BBX 9 5 1 7
BITMAP
3E00
6300
C180
6300
3E00
ENDCHAR
STARTCHAR char134
ENCODING 134
SWIDTH 550 0
DWIDTH 11 0
BBX 9 9 1 5
BITMAP
0800
1C00
1400
3600
2200
6300
4100
C180
8080
ENDCHAR
STARTCHAR char135
ENCODING 135
SWIDTH 550 0
DWIDTH 11 0
BBX 9 9 1 5
BITMAP
FF80
8180
8280
8480
8880
9080
A080
C080
FF80
ENDCHAR
STARTCHAR char136
ENCODING 136
SWIDTH 550 0
DWIDTH 11 0
BBX 9 9 1 5
BITMAP
FF80
C180
4100
6300
2200
3600
1400
1C00
0800
ENDCHAR
STARTCHAR char137
ENCODING 137
SWIDTH 550 0
DWIDTH 11 0
BBX 8 12 1 3
BITMAP
FF
03
03
03
03
7F
03
03
03
03
03
FF
ENDCHAR
STARTCHAR char138
ENCODING 138
SWIDTH 500 0
DWIDTH 10 0
BBX 9 9 1 4
BITMAP
C180
6300
3600
1C00
0800
1C00
3600
6300
C180
ENDCHAR
STARTCHAR char139
ENCODING 139
SWIDTH 550 0
DWIDTH 11 0
BBX 11 11 0 5
BITMAP
1F00
2080
4040
8020
8020
8020
8020
8020
4040
2080
1F00
ENDCHAR
STARTCHAR char140
ENCODING 140
SWIDTH 550 0
DWIDTH 11 0
BBX 11 11 0 4
BITMAP
0400
0A00
1100
2080
4040
8020
4040
2080
1100
0A00
0400
ENDCHAR
STARTCHAR char141
ENCODING 141
SWIDTH 500 0
DWIDTH 10 0
BBX 9 9 1 5
BITMAP
FF80
FF80
FF80
FF80
FF80
FF80
FF80
FF80
FF80
ENDCHAR
STARTCHAR char142
ENCODING 142
SWIDTH 550 0
DWIDTH 11 0
BBX 8 12 0 4
BITMAP
C3
C3
18
3C
3C
66
C3
C3
FF
C3
C3
C3
ENDCHAR
STARTCHAR char143
ENCODING 143
SWIDTH 550 0
DWIDTH 11 0
BBX 8 13 0 4
BITMAP
3C
66
3C
00
3C
3C
66
C3
C3
FF
C3
C3
C3
ENDCHAR
STARTCHAR char144
ENCODING 144
SWIDTH 550 0
DWIDTH 11 0
BBX 8 13 0 4
BITMAP
1C
38
60
00
FF
FF
63
60
7E
60
63
63
FF
ENDCHAR
STARTCHAR char145
ENCODING 145
SWIDTH 550 0
DWIDTH 11 0
BBX 8 9 0 4
BITMAP
C6
C6
7B
3B
7F
DC
DC
DC
67
ENDCHAR
STARTCHAR char146
ENCODING 146
SWIDTH 550 0
DWIDTH 11 0
BBX 8 11 0 4
BITMAP
3F
66
C6
C6
C6
FF
C6
C6
C6
C6
C7
ENDCHAR
STARTCHAR char147
ENCODING 147
SWIDTH 550 0
DWIDTH 11 0
BBX 8 12 0 4
BITMAP
18
3C
66
00
00
7E
C3
C3
C3
C3
C3
7E
ENDCHAR
STARTCHAR char148
ENCODING 148
SWIDTH 550 0
DWIDTH 11 0
BBX 8 11 0 4
BITMAP
C3
C3
00
00
7E
C3
C3
C3
C3
C3
7E
ENDCHAR
STARTCHAR char149
ENCODING 149
SWIDTH 550 0
DWIDTH 11 0
BBX 8 12 0 4
BITMAP
60
38
1C
00
00
7E
C3
C3
C3
C3
C3
7E
ENDCHAR
STARTCHAR char150
ENCODING 150
SWIDTH 550 0
DWIDTH 11 0
BBX 8 12 0 4
BITMAP
38
7C
C6
00
00
C6
C6
C6
C6
C6
C6
7B
ENDCHAR
STARTCHAR char151
ENCODING 151
SWIDTH 550 0
DWIDTH 11 0
BBX 8 12 0 4
BITMAP
60
38
1C
00
00
C6
C6
C6
C6
C6
C6
7B
ENDCHAR
STARTCHAR char152
ENCODING 152
SWIDTH 550 0
DWIDTH 11 0
BBX 8 15 0 0
BITMAP
C3
C3
00
00
C3
C3
C3
C3
7F
7F
03
06
7C
7C
7C
ENDCHAR
STARTCHAR char153
ENCODING 153
SWIDTH 550 0
DWIDTH 11 0
BBX 8 12 0 4
BITMAP
C3
C3
3C
66
66
C3
C3
C3
C3
66
66
3C
ENDCHAR
STARTCHAR char154
ENCODING 154
SWIDTH 550 0
DWIDTH 11 0
BBX 8 12 0 4
BITMAP
C3
C3
00
C3
C3
C3
C3
C3
C3
C3
C3
7E
ENDCHAR
STARTCHAR char155
ENCODING 155
SWIDTH 550 0
DWIDTH 11 0
BBX 7 12 1 4
BITMAP
38
38
7C
C6
C6
C0
C0
C6
7C
38
38
38
ENDCHAR
STARTCHAR char156
ENCODING 156
SWIDTH 550 0
DWIDTH 11 0
BBX 8 12 0 4
BITMAP
3C
66
62
60
60
F8
60
60
60
E3
E3
FE
ENDCHAR
STARTCHAR char157
ENCODING 157
SWIDTH 550 0
DWIDTH 11 0
BBX 7 11 1 4
BITMAP
C6
C6
7C
7C
38
FE
38
FE
38
38
38
ENDCHAR
STARTCHAR char158
ENCODING 158
SWIDTH 550 0
DWIDTH 11 0
BBX 8 12 0 4
BITMAP
FC
C6
C6
FC
FC
C2
C6
DF
C6
C6
C6
C3
ENDCHAR
STARTCHAR char159
ENCODING 159
SWIDTH 550 0
DWIDTH 11 0
BBX 8 16 0 0
BITMAP
07
00
1C
1C
1C
1C
7F
1C
1C
1C
1C
1C
DC
78
78
78
ENDCHAR
STARTCHAR char160
ENCODING 160
SWIDTH 550 0
DWIDTH 11 0
BBX 8 12 0 4
BITMAP
1C
38
60
00
00
7C
06
7E
C6
C6
C6
7B
ENDCHAR
STARTCHAR char161
ENCODING 161
SWIDTH 550 0
DWIDTH 11 0
BBX 5 12 2 4
BITMAP
18
70
E0
00
00
F0
70
70
70
70
70
F8
ENDCHAR
STARTCHAR char162
ENCODING 162
SWIDTH 550 0
DWIDTH 11 0
BBX 8 12 0 4
BITMAP
1C
38
60
00
00
7E
C3
C3
C3
C3
C3
7E
ENDCHAR
STARTCHAR char163
ENCODING 163
SWIDTH 550 0
DWIDTH 11 0
BBX 8 12 0 4
BITMAP
1C
38
60
00
00
C6
C6
C6
C6
C6
C6
7B
ENDCHAR
STARTCHAR char164
ENCODING 164
SWIDTH 550 0
DWIDTH 11 0
BBX 8 11 0 4
BITMAP
7B
DE
00
00
DE
63
63
63
63
63
63
ENDCHAR
STARTCHAR char165
ENCODING 165
SWIDTH 550 0
DWIDTH 11 0
BBX 8 13 0 4
BITMAP
7B
DE
00
C3
E3
E3
FB
FF
DF
C7
C3
C3
C3
ENDCHAR
STARTCHAR char166
ENCODING 166
SWIDTH 550 0
DWIDTH 11 0
BBX 7 7 1 9
BITMAP
7C
CC
CC
7E
7E
00
FE
ENDCHAR
STARTCHAR char167
ENCODING 167
SWIDTH 550 0
DWIDTH 11 0
BBX 6 7 1 9
BITMAP
78
CC
CC
78
78
00
FC
ENDCHAR
STARTCHAR char168
ENCODING 168
SWIDTH 550 0
DWIDTH 11 0
BBX 8 11 0 4
BITMAP
38
38
00
00
38
38
60
C3
C3
C3
7E
ENDCHAR
STARTCHAR char169
ENCODING 169
SWIDTH 550 0
DWIDTH 11 0
BBX 8 5 0 5
BITMAP
FF
C0
C0
C0
C0
ENDCHAR
STARTCHAR char170
ENCODING 170
SWIDTH 550 0
DWIDTH 11 0
BBX 8 5 0 5
BITMAP
FF
03
03
03
03
ENDCHAR
STARTCHAR char171
ENCODING 171
SWIDTH 550 0
DWIDTH 11 0
BBX 8 16 0 0
BITMAP
C0
C0
C3
C6
C6
DC
38
60
DE
83
83
06
1C
3F
3F
3F
ENDCHAR
STARTCHAR char172
ENCODING 172
SWIDTH 550 0
DWIDTH 11 0
BBX 8 16 0 0
BITMAP
C0
C0
C3
C6
C6
DC
38
63
C7
9F
9F
3F
03
03
03
03
ENDCHAR
STARTCHAR char173
ENCODING 173
SWIDTH 550 0
DWIDTH 11 0
BBX 5 11 2 4
BITMAP
70
70
00
00
70
70
F8
F8
F8
F8
70
ENDCHAR
STARTCHAR char174
ENCODING 174
SWIDTH 550 0
DWIDTH 11 0
BBX 8 6 0 7
BITMAP
3B
3B
66
DC
66
3B
ENDCHAR
STARTCHAR char175
ENCODING 175
SWIDTH 550 0
DWIDTH 11 0
BBX 8 6 0 7
BITMAP
DC
DC
66
3B
66
DC
ENDCHAR
STARTCHAR char176
ENCODING 176
SWIDTH 550 0
DWIDTH 11 0
BBX 10 15 0 0
BITMAP
1C80
3780
6300
6700
6700
6F00
7B00
7300
7300
E300
F600
9C00
0000
FFC0
FFC0
ENDCHAR
STARTCHAR char177
ENCODING 177
SWIDTH 550 0
DWIDTH 11 0
BBX 10 15 0 0
BITMAP
1800
3800
7800
5800
1800
1800
1800
1800
1800
1800
1800
7E00
0000
FFC0
FFC0
ENDCHAR
STARTCHAR char178
ENCODING 178
SWIDTH 550 0
DWIDTH 11 0
BBX 10 15 0 0
BITMAP
3F00
6180
6180
0180
0180
0300
0600
0C00
1800
3000
6000
7F80
0000
FFC0
FFC0
ENDCHAR
STARTCHAR char179
ENCODING 179
SWIDTH 550 0
DWIDTH 11 0
BBX 10 15 0 0
BITMAP
3F00
6180
6180
0180
0180
0F00
0F00
0180
0180
6180
6180
3F00
0000
FFC0
FFC0
ENDCHAR
STARTCHAR char180
ENCODING 180
SWIDTH 550 0
DWIDTH 11 0
BBX 10 15 0 0
BITMAP
0100
0300
0700
0B00
1300
2300
4300
7F80
0300
0300
0300
0300
0000
FFC0
FFC0
ENDCHAR
STARTCHAR char181
ENCODING 181
SWIDTH 550 0
DWIDTH 11 0
BBX 10 15 0 0
BITMAP
7F80
6000
6000
6000
6000
7E00
0300
0180
0180
6180
6300
3E00
0000
FFC0
FFC0
ENDCHAR
STARTCHAR char182
ENCODING 182
SWIDTH 550 0
DWIDTH 11 0
BBX 10 15 0 0
BITMAP
1F00
3180
6080
6000
6000
6E00
7300
6180
6180
6180
3300
1E00
0000
FFC0
FFC0
ENDCHAR
STARTCHAR char183
ENCODING 183
SWIDTH 550 0
DWIDTH 11 0
BBX 10 15 0 0
BITMAP
7F80
4180
0180
0380
0300
0600
0600
0600
0C00
0C00
0C00
0C00
0000
FFC0
FFC0
ENDCHAR
STARTCHAR char184
ENCODING 184
SWIDTH 550 0
DWIDTH 11 0
BBX 10 15 0 0
BITMAP
1E00
3300
6180
6180
6180
3F00
3300
6180
6180
6180
3300
1E00
0000
FFC0
FFC0
ENDCHAR
STARTCHAR char185
ENCODING 185
SWIDTH 550 0
DWIDTH 11 0
BBX 10 15 0 0
BITMAP
1E00
3300
6180
6180
6180
3380
1D80
0180
0180
0180
6300
3E00
0000
FFC0
FFC0
ENDCHAR
STARTCHAR char186
ENCODING 186
SWIDTH 550 0
DWIDTH 11 0
BBX 10 6 0 7
BITMAP
FFC0
FFC0
FFC0
FFC0
FFC0
FFC0
ENDCHAR
STARTCHAR char187
ENCODING 187
SWIDTH 550 0
DWIDTH 11 0
BBX 10 13 0 3
BITMAP
6000
7800
7C00
FE00
FE00
FF00
FFC0
FF00
FE00
7C00
7C00
7800
6000
ENDCHAR
STARTCHAR char188
ENCODING 188
SWIDTH 550 0
DWIDTH 11 0
BBX 8 9 0 8
BITMAP
3B
3B
3B
3B
3B
3B
FB
03
FF
ENDCHAR
STARTCHAR char189
ENCODING 189
SWIDTH 550 0
DWIDTH 11 0
BBX 8 9 0 8
BITMAP
3B
3B
3B
3B
3B
3B
3B
3B
FF
ENDCHAR
STARTCHAR char190
ENCODING 190
SWIDTH 550 0
DWIDTH 11 0
BBX 6 9 0 8
BITMAP
1C
1C
1C
1C
1C
1C
FC
1C
FC
ENDCHAR
STARTCHAR char191
ENCODING 191
SWIDTH 550 0
DWIDTH 11 0
BBX 6 9 0 0
BITMAP
FC
1C
1C
1C
1C
1C
1C
1C
1C
ENDCHAR
STARTCHAR char192
ENCODING 192
SWIDTH 550 0
DWIDTH 11 0
BBX 5 9 3 8
BITMAP
E0
E0
E0
E0
E0
E0
E0
E0
E8
ENDCHAR
STARTCHAR char193
ENCODING 193
SWIDTH 550 0
DWIDTH 11 0
BBX 10 15 0 0
BITMAP
0C00
0C00
0C00
1600
1600
1600
3300
3300
3F00
6180
6180
6180
0000
FFC0
FFC0
ENDCHAR
STARTCHAR char194
ENCODING 194
SWIDTH 550 0
DWIDTH 11 0
BBX 10 15 0 0
BITMAP
7C00
6600
6300
6300
6300
7E00
6300
6180
6180
6180
6300
7E00
0000
FFC0
FFC0
ENDCHAR
STARTCHAR char195
ENCODING 195
SWIDTH 550 0
DWIDTH 11 0
BBX 10 15 0 0
BITMAP
1E00
3300
6180
6000
6000
6000
6000
6000
6000
6180
3300
1E00
0000
FFC0
FFC0
ENDCHAR
STARTCHAR char196
ENCODING 196
SWIDTH 550 0
DWIDTH 11 0
BBX 10 15 0 0
BITMAP
7E00
6300
6180
6180
6180
6180
6180
6180
6180
6180
6300
7E00
0000
FFC0
FFC0
ENDCHAR
STARTCHAR char197
ENCODING 197
SWIDTH 550 0
DWIDTH 11 0
BBX 10 15 0 0
BITMAP
7F80
6000
6000
6000
6000
7F00
6000
6000
6000
6000
6000
7F80
0000
FFC0
FFC0
ENDCHAR
STARTCHAR char198
ENCODING 198
SWIDTH 550 0
DWIDTH 11 0
BBX 10 15 0 0
BITMAP
7F80
6000
6000
6000
6000
7F00
6000
6000
6000
6000
6000
6000
0000
FFC0
FFC0
ENDCHAR
STARTCHAR char199
ENCODING 199
SWIDTH 550 0
DWIDTH 11 0
BBX 10 15 0 0
BITMAP
1E00
3300
6180
6000
6000
6000
6780
6180
6180
6180
3380
1D80
0000
FFC0
FFC0
ENDCHAR
STARTCHAR char200
ENCODING 200
SWIDTH 550 0
DWIDTH 11 0
BBX 10 15 0 0
BITMAP
6180
6180
6180
6180
6180
7F80
6180
6180
6180
6180
6180
6180
0000
FFC0
FFC0
ENDCHAR
STARTCHAR char201
ENCODING 201
SWIDTH 550 0
DWIDTH 11 0
BBX 10 15 0 0
BITMAP
7E00
1800
1800
1800
1800
1800
1800
1800
1800
1800
1800
7E00
0000
FFC0
FFC0
ENDCHAR
STARTCHAR char202
ENCODING 202
SWIDTH 550 0
DWIDTH 11 0
BBX 10 15 0 0
BITMAP
1FC0
0300
0300
0300
0300
0300
0300
0300
0300
6300
3600
1C00
0000
FFC0
FFC0
ENDCHAR
STARTCHAR char203
ENCODING 203
SWIDTH 550 0
DWIDTH 11 0
BBX 10 15 0 0
BITMAP
6180
6300
6600
6C00
7800
7C00
6C00
6600
6600
6300
6300
6180
0000
FFC0
FFC0
ENDCHAR
STARTCHAR char204
ENCODING 204
SWIDTH 550 0
DWIDTH 11 0
BBX 10 15 0 0
BITMAP
6000
6000
6000
6000
6000
6000
6000
6000
6000
6000
6000
7F80
0000
FFC0
FFC0
ENDCHAR
STARTCHAR char205
ENCODING 205
SWIDTH 550 0
DWIDTH 11 0
BBX 10 15 0 0
BITMAP
4080
6180
7380
7380
7F80
6D80
6D80
6D80
6180
6180
6180
6180
0000
FFC0
FFC0
ENDCHAR
STARTCHAR char206
ENCODING 206
SWIDTH 550 0
DWIDTH 11 0
BBX 10 15 0 0
BITMAP
6180
6180
7180
7180
6980
6980
6580
6580
6380
6380
6180
6180
0000
FFC0
FFC0
ENDCHAR
STARTCHAR char207
ENCODING 207
SWIDTH 550 0
DWIDTH 11 0
BBX 10 15 0 0
BITMAP
1E00
3300
6180
6180
6180
6180
6180
6180
6180
6180
3300
1E00
0000
FFC0
FFC0
ENDCHAR
STARTCHAR char208
ENCODING 208
SWIDTH 550 0
DWIDTH 11 0
BBX 10 15 0 0
BITMAP
7E00
6300
6180
6180
6180
6300
7E00
6000
6000
6000
6000
6000
0000
FFC0
FFC0
ENDCHAR
STARTCHAR char209
ENCODING 209
SWIDTH 550 0
DWIDTH 11 0
BBX 10 15 0 0
BITMAP
1E00
3300
6180
6180
6180
6180
6180
6D80
6D80
6700
33C0
1EC0
0000
FFC0
FFC0
ENDCHAR
STARTCHAR char210
ENCODING 210
SWIDTH 550 0
DWIDTH 11 0
BBX 10 15 0 0
BITMAP
7E00
6300
6180
6180
6180
6300
7E00
6600
6300
6300
6180
6180
0000
FFC0
FFC0
ENDCHAR
STARTCHAR char211
ENCODING 211
SWIDTH 550 0
DWIDTH 11 0
BBX 10 15 0 0
BITMAP
1E00
3300
6180
6000
3800
0E00
0300
0180
0180
6180
3300
1E00
0000
FFC0
FFC0
ENDCHAR
STARTCHAR char212
ENCODING 212
SWIDTH 550 0
DWIDTH 11 0
BBX 10 15 0 0
BITMAP
7FC0
0600
0600
0600
0600
0600
0600
0600
0600
0600
0600
0600
0000
FFC0
FFC0
ENDCHAR
STARTCHAR char213
ENCODING 213
SWIDTH 550 0
DWIDTH 11 0
BBX 10 15 0 0
BITMAP
6180
6180
6180
6180
6180
6180
6180
6180
6180
6180
3300
1E00
0000
FFC0
FFC0
ENDCHAR
STARTCHAR char214
ENCODING 214
SWIDTH 550 0
DWIDTH 11 0
BBX 10 15 0 0
BITMAP
6180
6180
6180
2300
3300
3300
1600
1600
1E00
0C00
0C00
0C00
0000
FFC0
FFC0
ENDCHAR
STARTCHAR char215
ENCODING 215
SWIDTH 550 0
DWIDTH 11 0
BBX 10 15 0 0
BITMAP
6180
6180
6180
6180
6180
6180
6180
6D80
7F80
7F80
7380
6180
0000
FFC0
FFC0
ENDCHAR
STARTCHAR char216
ENCODING 216
SWIDTH 550 0
DWIDTH 11 0
BBX 10 15 0 0
BITMAP
6180
6180
3300
3300
1E00
0C00
0C00
1E00
3300
3300
6180
6180
0000
FFC0
FFC0
ENDCHAR
STARTCHAR char217
ENCODING 217
SWIDTH 550 0
DWIDTH 11 0
BBX 10 15 0 0
BITMAP
6180
6180
3300
3300
1200
1E00
0C00
0C00
0C00
0C00
0C00
0C00
0000
FFC0
FFC0
ENDCHAR
STARTCHAR char218
ENCODING 218
SWIDTH 550 0
DWIDTH 11 0
BBX 10 15 0 0
BITMAP
7F80
0300
0300
0600
0600
0C00
0C00
1800
1800
3000
3000
7F80
0000
FFC0
FFC0
ENDCHAR
STARTCHAR char219
ENCODING 219
SWIDTH 550 0
DWIDTH 11 0
BBX 8 11 0 4
BITMAP
7E
C3
C3
C3
DF
DF
DF
DE
C0
C0
7E
ENDCHAR
STARTCHAR char220
ENCODING 220
SWIDTH 550 0
DWIDTH 11 0
BBX 0 0 0 0
BITMAP
ENDCHAR
STARTCHAR char221
ENCODING 221
SWIDTH 550 0
DWIDTH 11 0
BBX 5 17 0 0
BITMAP
F8
F8
F8
F8
F8
F8
F8
F8
F8
F8
F8
F8
F8
F8
F8
F8
F8
ENDCHAR
STARTCHAR char222
ENCODING 222
SWIDTH 550 0
DWIDTH 11 0
BBX 2 17 3 0
BITMAP
C0
C0
C0
C0
C0
C0
C0
C0
C0
C0
C0
C0
C0
C0
C0
C0
C0
ENDCHAR
STARTCHAR char223
ENCODING 223
SWIDTH 550 0
DWIDTH 11 0
BBX 9 10 1 5
BITMAP
0800
0800
1C00
FF80
7F00
3E00
3E00
3E00
6300
4100
ENDCHAR
STARTCHAR char224
ENCODING 224
SWIDTH 550 0
DWIDTH 11 0
BBX 7 11 2 4
BITMAP
10
28
28
44
44
82
44
44
28
28
10
ENDCHAR
STARTCHAR char225
ENCODING 225
SWIDTH 550 0
DWIDTH 11 0
BBX 9 9 1 5
BITMAP
1C00
2200
4100
8080
8880
8080
4100
2200
1C00
ENDCHAR
STARTCHAR char226
ENCODING 226
SWIDTH 550 0
DWIDTH 11 0
BBX 11 11 0 4
BITMAP
FFE0
8E20
9120
A0A0
C060
C460
C060
A0A0
9120
8E20
FFE0
ENDCHAR
STARTCHAR char227
ENCODING 227
SWIDTH 550 0
DWIDTH 11 0
BBX 8 10 0 4
BITMAP
60
10
10
FC
14
14
64
04
04
1F
ENDCHAR
STARTCHAR char228
ENCODING 228
SWIDTH 550 0
DWIDTH 11 0
BBX 11 11 0 4
BITMAP
0400
0400
0400
0400
0000
F1E0
0000
0400
0400
0400
0400
ENDCHAR
STARTCHAR char229
ENCODING 229
SWIDTH 550 0
DWIDTH 11 0
BBX 11 11 0 4
BITMAP
0400
0400
0400
0400
0400
FFE0
0400
0400
0400
0400
0400
ENDCHAR
STARTCHAR char230
ENCODING 230
SWIDTH 550 0
DWIDTH 11 0
BBX 8 10 0 3
BITMAP
63
63
63
63
63
7E
60
60
60
C0
ENDCHAR
STARTCHAR char231
ENCODING 231
SWIDTH 550 0
DWIDTH 11 0
BBX 8 9 0 4
BITMAP
7B
7B
DE
1C
1C
1C
1C
1C
1C
ENDCHAR
STARTCHAR char232
ENCODING 232
SWIDTH 550 0
DWIDTH 11 0
BBX 7 11 1 4
BITMAP
FE
38
7C
7C
C6
C6
C6
7C
38
38
FE
ENDCHAR
STARTCHAR char233
ENCODING 233
SWIDTH 550 0
DWIDTH 11 0
BBX 8 11 0 4
BITMAP
3C
66
C3
C3
C3
FF
C3
C3
66
66
3C
ENDCHAR
STARTCHAR char234
ENCODING 234
SWIDTH 550 0
DWIDTH 11 0
BBX 8 11 0 4
BITMAP
3C
66
C3
C3
C3
C3
66
66
66
66
E7
ENDCHAR
STARTCHAR char235
ENCODING 235
SWIDTH 550 0
DWIDTH 11 0
BBX 7 11 1 4
BITMAP
3E
70
38
38
0C
7E
C6
C6
C6
C6
7C
ENDCHAR
STARTCHAR char236
ENCODING 236
SWIDTH 550 0
DWIDTH 11 0
BBX 7 4 1 7
BITMAP
FE
00
00
FE
ENDCHAR
STARTCHAR char237
ENCODING 237
SWIDTH 550 0
DWIDTH 11 0
BBX 11 11 0 3
BITMAP
1F00
2480
4440
8020
8020
E0E0
8020
8020
4440
2480
1F00
ENDCHAR
STARTCHAR char238
ENCODING 238
SWIDTH 550 0
DWIDTH 11 0
BBX 11 11 0 3
BITMAP
0A00
0A00
0A00
0A00
FBE0
0000
FBE0
0A00
0A00
0A00
0A00
ENDCHAR
STARTCHAR char239
ENCODING 239
SWIDTH 550 0
DWIDTH 11 0
BBX 11 11 0 3
BITMAP
0400
0400
0400
0400
0400
FFE0
0400
0400
0400
0400
0400
ENDCHAR
STARTCHAR char240
ENCODING 240
SWIDTH 550 0
DWIDTH 11 0
BBX 11 11 0 3
BITMAP
0400
0A00
0A00
1100
1100
2080
2080
4040
4040
8020
8020
ENDCHAR
STARTCHAR char241
ENCODING 241
SWIDTH 550 0
DWIDTH 11 0
BBX 11 11 0 3
BITMAP
0400
0A00
0A00
1100
1100
2080
2080
4440
4040
8420
8420
ENDCHAR
STARTCHAR char242
ENCODING 242
SWIDTH 550 0
DWIDTH 11 0
BBX 5 10 3 4
BITMAP
20
A8
70
A8
20
20
20
20
20
20
ENDCHAR
STARTCHAR char243
ENCODING 243
SWIDTH 550 0
DWIDTH 11 0
BBX 5 5 3 7
BITMAP
20
A8
70
A8
20
ENDCHAR
STARTCHAR char244
ENCODING 244
SWIDTH 550 0
DWIDTH 11 0
BBX 11 11 0 4
BITMAP
0400
1F00
2080
4040
4040
C060
4040
4040
2080
1F00
0400
ENDCHAR
STARTCHAR char245
ENCODING 245
SWIDTH 550 0
DWIDTH 11 0
BBX 9 9 1 5
BITMAP
3E00
4100
9C80
A280
A280
A280
9C80
4100
3E00
ENDCHAR
STARTCHAR char246
ENCODING 246
SWIDTH 550 0
DWIDTH 11 0
BBX 11 11 0 4
BITMAP
0400
1F00
2080
4E40
5140
D160
5140
4E40
2080
1F00
0400
ENDCHAR
STARTCHAR char247
ENCODING 247
SWIDTH 550 0
DWIDTH 11 0
BBX 9 9 1 5
BITMAP
3E00
4100
8080
8080
8080
8080
8080
4100
3E00
ENDCHAR
STARTCHAR char248
ENCODING 248
SWIDTH 550 0
DWIDTH 11 0
BBX 11 11 0 4
BITMAP
8420
4440
2480
1F00
1100
F1E0
1100
1F00
2480
4440
8420
ENDCHAR
STARTCHAR char249
ENCODING 249
SWIDTH 550 0
DWIDTH 11 0
BBX 9 9 1 5
BITMAP
3E00
4100
9480
9480
9C80
9480
9480
4100
3E00
ENDCHAR
STARTCHAR char250
ENCODING 250
SWIDTH 550 0
DWIDTH 11 0
BBX 9 9 1 5
BITMAP
0800
0800
0800
0800
FF80
0800
0800
0800
0800
ENDCHAR
STARTCHAR char251
ENCODING 251
SWIDTH 550 0
DWIDTH 11 0
BBX 9 9 1 5
BITMAP
8080
4100
2200
1400
0800
1400
2200
4100
8080
ENDCHAR
STARTCHAR char252
ENCODING 252
SWIDTH 550 0
DWIDTH 11 0
BBX 5 5 3 7
BITMAP
70
F8
F8
F8
70
ENDCHAR
STARTCHAR char253
ENCODING 253
SWIDTH 550 0
DWIDTH 11 0
BBX 9 9 1 5
BITMAP
3E00
4100
9C80
BE80
BE80
BE80
9C80
4100
3E00
ENDCHAR
STARTCHAR char254
ENCODING 254
SWIDTH 450 0
DWIDTH 9 0
BBX 7 7 2 6
BITMAP
FE
82
82
82
82
82
FE
ENDCHAR
STARTCHAR char255
ENCODING 255
SWIDTH 550 0
DWIDTH 11 0
BBX 0 0 0 0
BITMAP
ENDCHAR
ENDFONT
